<svg version="1.1" id="Layer_1" xmlns="http://www.w3.org/2000/svg" xmlns:xlink="http://www.w3.org/1999/xlink" x="0px" y="0px"
	 width="100%" viewBox="0 0 1024 1024" enable-background="new 0 0 1024 1024" xml:space="preserve">
<path fill="#000000" opacity="1.000000" stroke="none" 
	d="
M640.163879,217.718781 
	C685.463562,237.809265 723.692078,266.729095 755.120422,304.484070 
	C786.263733,341.896667 808.467468,384.003845 819.908691,431.492523 
	C826.320435,458.105560 829.648682,485.156494 828.955933,512.534668 
	C827.692627,562.464233 816.119019,609.902710 793.796570,654.705811 
	C775.450806,691.527283 751.469727,724.041443 720.376892,751.025269 
	C681.457031,784.801697 636.997559,807.991089 586.564636,819.341553 
	C566.741699,823.802856 546.715210,826.475342 526.379517,827.426453 
	C435.901520,831.658020 358.550903,801.265869 293.564240,738.932129 
	C254.148407,701.125427 227.423660,655.282837 211.455261,603.182190 
	C204.074020,579.099182 200.000351,554.429565 198.494507,529.200745 
	C195.651886,481.574951 202.930435,435.650238 219.977234,391.236206 
	C234.139114,354.338623 256.001953,322.249329 282.728363,293.401825 
	C323.258728,249.654877 371.746796,218.571182 429.442139,202.536713 
	C448.517548,197.235352 467.943176,193.946655 487.775391,192.527451 
	C531.987183,189.363678 575.124512,193.967911 617.029541,208.692795 
	C624.715576,211.393555 632.223694,214.600906 640.163879,217.718781 
M570.015259,304.996613 
	C570.015259,304.996613 569.976440,304.966461 570.479553,305.451172 
	C574.588867,307.254486 578.735718,308.977448 582.801880,310.873291 
	C633.584167,334.550507 667.653198,384.851288 658.000854,446.413544 
	C652.094666,484.082947 632.374146,513.600952 599.201050,533.197205 
	C573.654602,548.288147 546.081909,554.124939 516.706909,548.194885 
	C474.692108,539.713196 440.499451,504.275604 441.258881,457.520081 
	C441.923035,416.630219 475.308533,375.071625 516.664612,371.313995 
	C539.509460,369.238281 559.353455,374.825562 575.718628,390.763550 
	C604.603882,418.894897 599.142212,463.093262 564.621826,481.049835 
	C549.971008,488.670746 535.189880,488.913116 521.429626,478.428711 
	C511.202515,470.636292 508.257538,453.462952 515.092346,442.628418 
	C517.444763,438.899414 520.851318,436.568268 525.114807,435.792389 
	C529.694031,434.959045 533.915161,436.193695 536.705872,440.015686 
	C539.724976,444.150543 538.571045,448.510132 536.359070,452.717499 
	C534.805786,455.671967 532.966675,458.796173 535.142395,462.084045 
	C537.181274,465.165131 540.611389,464.969910 543.784424,464.635620 
	C567.239624,462.164459 580.185913,436.052460 568.028687,415.813934 
	C558.350708,399.702667 537.677246,390.582397 518.518677,393.533722 
	C487.170532,398.362885 459.826965,431.548615 462.948547,465.291016 
	C466.223328,500.689270 496.445190,524.408630 528.095764,527.564270 
	C529.861633,523.069946 532.472900,522.780457 539.114868,526.379883 
	C537.154480,527.712646 534.527039,526.174377 532.626343,527.864380 
	C533.539185,529.148193 534.809692,528.618408 535.867615,528.652405 
	C546.628723,528.998840 557.013306,526.924622 567.223572,523.711731 
	C612.665466,509.412628 641.424744,465.021484 636.465332,415.841309 
	C633.424438,385.686310 618.389526,361.957428 594.425720,344.345947 
	C553.025085,313.919678 507.931000,309.508423 461.383392,330.424225 
	C419.262726,349.350830 391.693634,382.520721 376.316986,425.748962 
	C367.541107,450.420471 366.698334,475.924591 371.353607,501.525879 
	C380.404053,551.298096 407.687317,586.835266 454.757141,606.398010 
	C469.968384,612.720032 485.793945,614.508728 502.198608,611.798096 
	C518.902222,609.038025 533.950989,602.048828 548.784424,594.478699 
	C568.828735,584.249329 589.034973,574.378296 610.576782,567.695435 
	C643.896057,557.358887 677.955383,552.883484 712.918579,554.503357 
	C732.796936,555.424255 752.245544,558.130127 771.434387,563.281372 
	C780.112000,565.610962 788.138062,569.641602 796.607727,572.548218 
	C798.227112,570.583191 798.407898,568.414978 798.755005,566.321472 
	C802.676331,542.668945 805.179810,518.975037 804.050415,494.877899 
	C803.261353,478.040985 801.631897,461.375977 798.163330,444.941681 
	C789.148560,402.230225 771.514587,363.217438 744.549561,328.980591 
	C692.646118,263.079956 625.273499,224.249023 541.275818,215.097702 
	C520.103394,212.791031 499.056183,213.132416 478.067261,215.564316 
	C449.638092,218.858261 422.393616,226.929245 396.285034,238.634720 
	C354.482422,257.376465 319.666962,285.376312 290.025513,319.974823 
	C248.981888,367.882324 227.096786,423.867432 222.601883,486.409607 
	C220.368347,517.487061 222.445145,548.580200 229.906372,579.117737 
	C231.003799,583.609314 232.295273,584.363770 236.470749,583.200928 
	C254.311035,578.232361 272.243347,578.878296 290.309143,582.343811 
	C302.016693,584.589661 312.784088,589.490723 324.006958,593.002136 
	C324.006958,593.002136 323.987305,592.983643 324.485291,593.456360 
	C351.237915,605.933044 377.700165,619.277100 408.827759,621.712891 
	C404.423126,619.862915 400.281952,620.114502 396.045044,617.164490 
	C401.871887,616.350464 407.064667,616.783875 412.004730,612.948853 
	C405.599274,613.116028 407.313812,607.771790 404.995331,605.373779 
	C407.114197,606.494690 408.972595,607.860962 410.924225,609.077637 
	C412.704834,610.187561 414.586487,611.135315 416.423584,612.154541 
	C415.796051,610.861389 414.879089,610.164978 413.930359,609.515015 
	C392.741882,594.998474 376.162262,576.366638 364.758057,553.364136 
	C349.276154,522.136902 343.950928,489.101196 347.543060,454.439911 
	C349.821930,432.450195 356.018555,411.772919 366.162567,392.195465 
	C372.078918,380.777100 379.522644,370.360504 387.000305,359.994171 
	C387.000305,359.994171 386.978760,360.013000 387.554779,359.674164 
	C388.261139,358.971252 389.025116,358.316986 389.665375,357.558350 
	C404.650452,339.802856 422.217285,325.301880 442.770233,314.302979 
	C473.722076,297.739136 506.472290,293.408356 540.906372,298.449951 
	C550.830566,299.903015 560.286377,303.087250 570.015259,304.996613 
M422.943237,703.524780 
	C440.341309,704.560852 457.419708,702.331421 474.442383,698.906006 
	C501.706787,693.419739 526.411804,681.579468 550.768555,668.803467 
	C592.040344,647.154785 635.343689,633.735107 682.554993,634.460144 
	C708.313843,634.855713 733.288147,637.910217 756.862793,648.964661 
	C759.958313,650.416199 762.830750,654.193298 766.055908,653.017822 
	C769.182495,651.878113 769.649963,647.308838 771.270752,644.257019 
	C778.860779,629.964905 785.084351,615.081665 790.136719,599.702332 
	C791.030579,596.981323 791.152039,595.064392 787.930786,593.784241 
	C779.427734,590.404724 771.021179,586.682922 762.135803,584.481567 
	C736.179382,578.050720 709.927124,575.169312 683.093506,577.109314 
	C663.938538,578.494141 645.177429,581.531860 626.738464,586.710266 
	C602.564270,593.499268 580.072021,604.316345 557.825928,615.717896 
	C514.615479,637.864197 469.161224,649.277100 420.234375,645.486938 
	C401.048035,644.000671 382.428101,640.591614 364.199402,634.565247 
	C344.391144,628.016663 326.247498,617.488403 306.583588,610.633484 
	C285.561127,603.304871 264.251495,599.191162 242.041260,605.183167 
	C238.888931,606.033630 237.725296,607.019165 238.851440,610.266907 
	C246.979874,633.708740 258.331696,655.488464 272.392395,675.897583 
	C273.786377,677.920959 275.135071,678.555237 277.767914,678.061157 
	C290.493134,675.672974 303.236145,676.289551 315.956665,678.458069 
	C331.605591,681.125854 346.569977,686.208923 361.595673,691.110596 
	C381.262054,697.526001 401.337524,701.973816 422.943237,703.524780 
M316.710449,701.011047 
	C308.074799,698.732971 299.262207,698.920593 289.663391,698.400146 
	C321.165894,735.531372 357.757751,763.910156 402.608307,780.897644 
	C420.270660,787.587463 438.128174,789.615723 456.783203,784.245911 
	C475.137787,778.962524 492.488983,771.487183 509.404175,762.867126 
	C529.128967,752.815247 548.358398,741.804504 568.885010,733.333374 
	C596.207703,722.057556 624.399841,715.167603 654.084351,714.606689 
	C673.338135,714.242920 692.295288,715.846375 710.844543,721.208191 
	C713.457153,721.963440 715.583008,721.766418 717.655334,719.681335 
	C730.133362,707.127075 741.585999,693.728638 751.777954,679.242859 
	C754.006165,676.075867 753.792053,674.584351 750.126221,672.462769 
	C729.269531,660.392517 706.340820,657.039429 682.899048,656.474060 
	C662.349854,655.978394 642.171326,659.259583 622.317139,664.664124 
	C599.672363,670.828369 578.556885,680.667847 557.891479,691.461365 
	C524.903564,708.691101 490.767029,722.108582 453.326965,725.644714 
	C437.509369,727.138550 421.682953,726.818848 405.987610,724.992004 
	C389.291962,723.048767 373.043732,718.675720 357.085876,713.323853 
	C344.009155,708.938293 331.153412,703.819397 316.710449,701.011047 
M622.872314,740.500366 
	C600.044128,745.175659 578.627014,753.674744 558.030212,764.406067 
	C537.077148,775.322998 516.439453,786.878906 494.522614,795.847473 
	C488.778259,798.198059 483.006561,800.481873 477.247437,802.796387 
	C477.323334,803.209167 477.399200,803.622009 477.475098,804.034851 
	C526.052124,808.608154 573.219238,801.935059 618.736450,784.184143 
	C646.080505,773.520325 671.870789,759.850525 694.156006,740.230164 
	C670.420288,734.658203 647.052368,735.524719 622.872314,740.500366 
M821.611694,556.224548 
	C821.703186,550.766113 822.139648,545.293396 819.403259,540.177673 
	C818.674683,538.815552 819.091248,537.556580 820.888428,536.588379 
	C825.186035,534.273071 826.421509,530.474304 824.827393,525.751648 
	C823.976379,523.230469 822.492920,520.704529 823.171326,518.035889 
	C825.203491,510.041748 824.520020,501.788818 825.776855,493.744568 
	C826.833069,486.984985 825.671143,480.606354 821.532043,475.388367 
	C816.406311,468.926605 812.520691,469.342346 808.143433,475.687256 
	C806.408325,478.202332 806.883362,481.156616 807.997253,483.861023 
	C809.348511,487.141815 809.711121,490.590759 810.337891,494.034088 
	C811.263855,499.121033 809.890381,504.482758 812.038757,509.336609 
	C815.589417,517.358765 813.081482,525.499268 810.313721,532.394287 
	C806.983459,540.690613 804.548462,548.535095 805.768738,557.382019 
	C805.998352,559.046753 806.215027,560.742004 805.474243,562.304138 
	C801.863037,569.918945 799.394165,577.757141 800.461243,586.343872 
	C800.595032,587.420471 800.263733,588.419983 799.289368,588.910278 
	C795.334106,590.900391 795.964294,594.862305 795.587097,598.137268 
	C795.093628,602.421936 798.271301,604.169434 802.112549,602.044983 
	C803.815918,601.102905 804.992798,599.199890 807.299011,599.373596 
	C811.247253,599.671082 812.672302,597.254578 812.781128,593.852661 
	C812.852722,591.613831 813.747620,589.717407 814.374329,587.660400 
	C817.347229,577.902466 818.048767,567.581787 821.576111,557.943176 
	C821.684937,557.645813 821.610596,557.281494 821.611694,556.224548 
M205.500076,521.029846 
	C206.589096,526.857971 208.322235,532.614563 204.124908,538.179932 
	C202.593307,540.210754 203.084167,543.161194 204.751099,545.243713 
	C207.265640,548.385132 207.399231,551.497803 206.715515,555.429565 
	C206.096970,558.986633 206.842361,563.006897 207.907272,566.545715 
	C208.544403,568.663025 211.826126,567.126770 213.748001,568.421326 
	C216.946579,570.575806 218.070358,568.696533 217.553436,565.643677 
	C217.009048,562.428528 217.410645,559.887146 219.075943,556.782104 
	C221.071075,553.061951 220.807983,548.325012 220.426865,544.477844 
	C218.134766,542.797974 217.216110,545.466187 215.321457,544.571411 
	C214.128738,540.377808 213.167419,535.841919 210.693390,531.810730 
	C209.916260,530.544495 209.936783,528.533691 210.165298,526.946228 
	C211.763931,515.841248 211.175385,504.665802 210.901016,493.552063 
	C210.750504,487.455109 213.833160,482.359406 214.308258,476.586212 
	C214.396072,475.519196 215.220444,474.814697 216.380157,474.792633 
	C220.458450,474.714905 220.374008,471.845184 220.674576,468.877930 
	C221.221573,463.477905 219.396774,457.986267 221.676605,452.638489 
	C224.539856,445.922211 224.287018,445.401611 218.495056,440.617828 
	C206.250259,448.847748 203.122864,457.333344 206.440399,471.485504 
	C207.946808,477.911652 207.497879,484.571808 204.353256,490.473297 
	C201.900696,495.076080 201.692245,499.654053 202.474426,504.480347 
	C203.325195,509.730072 204.360916,514.949829 205.500076,521.029846 
M563.808533,820.806213 
	C565.228455,820.526978 566.841248,820.684204 567.843872,818.889587 
	C566.237732,816.037048 563.169189,814.943787 560.587585,813.283264 
	C558.783264,812.122620 555.662659,812.304016 554.989502,810.336182 
	C553.012390,804.556030 548.599121,805.619568 544.791382,806.621765 
	C540.017090,807.878174 535.313049,808.069214 530.476990,807.967102 
	C528.108765,807.917114 525.463318,807.553833 523.751587,809.939697 
	C524.351929,812.064087 525.910950,813.438843 526.159424,815.556763 
	C526.595093,819.270996 529.149963,821.092468 532.758789,820.990540 
	C542.844482,820.705627 552.942932,823.378906 563.808533,820.806213 
M742.770813,720.464966 
	C743.844177,717.214050 747.308289,715.010803 747.415771,711.228271 
	C744.862488,710.401306 743.801941,712.002319 742.665466,713.036255 
	C737.144897,718.058960 732.060486,723.632568 726.158264,728.143066 
	C720.875061,732.180481 718.401001,738.447693 713.287537,742.454346 
	C711.636841,743.747742 708.929932,745.128967 710.893494,747.469421 
	C712.557007,749.452209 715.732910,749.259766 717.737183,747.713806 
	C724.107178,742.800415 729.840210,737.106506 734.880188,730.873535 
	C737.490234,727.645569 740.074402,724.356628 742.770813,720.464966 
M758.418091,689.621582 
	C757.995239,693.551147 761.593201,693.301575 763.670837,694.434021 
	C765.190063,695.262146 766.682068,694.058533 767.325623,692.679688 
	C769.397888,688.239502 771.851074,684.114624 774.781677,680.136780 
	C777.130920,676.948120 775.482483,674.697327 771.507080,675.094666 
	C768.231018,675.421997 765.051819,676.178589 761.673035,675.706238 
	C759.190796,675.359131 758.325012,677.117432 758.338623,679.518494 
	C758.356323,682.642883 759.373596,685.742615 758.418091,689.621582 
M353.862885,455.723511 
	C352.648315,462.303162 352.793243,468.620331 357.351837,475.205597 
	C361.761322,467.857056 364.171082,461.013519 364.303528,453.326630 
	C362.570282,452.860535 360.974854,454.126373 359.420380,452.810974 
	C356.479523,450.322418 355.003021,452.140900 353.862885,455.723511 
M805.824951,447.604919 
	C806.732605,449.947266 808.236145,451.817230 810.925781,451.389740 
	C813.309265,451.010895 813.314453,448.623138 813.905151,446.731018 
	C815.215637,442.533173 817.551270,438.285645 811.760315,435.403015 
	C811.258728,435.153381 811.208740,433.910431 811.033264,433.110382 
	C810.698669,431.585663 811.095154,429.372650 808.556458,429.695374 
	C806.556091,429.949677 806.123779,431.739868 806.057922,433.475311 
	C805.888611,437.934662 805.778992,442.396332 805.824951,447.604919 
M449.002686,448.460571 
	C444.718414,453.601593 445.847015,459.582184 446.675568,465.369751 
	C446.942902,467.237000 449.028412,468.479156 450.952118,467.102539 
	C454.011200,464.913513 454.074799,461.374542 453.853577,458.087830 
	C453.626068,454.707428 455.520691,450.610229 451.205200,448.328674 
	C450.811859,448.120758 450.233215,448.263367 449.002686,448.460571 
M691.832153,765.553040 
	C693.606445,765.332214 695.407898,765.237427 697.148743,764.861694 
	C699.944885,764.258240 700.363342,761.852417 700.704468,759.565125 
	C700.914124,758.158752 700.375671,756.910156 698.871155,756.486572 
	C696.682983,755.870605 695.078369,756.932495 693.713318,758.518188 
	C692.078918,760.416565 690.526245,762.340149 691.832153,765.553040 
M426.808990,620.833618 
	C422.750946,621.080322 418.692902,621.327026 414.634857,621.573730 
	C414.669800,621.814880 414.704742,622.056030 414.739685,622.297180 
	C421.046692,622.297180 427.353729,622.297180 434.528137,622.297180 
	C431.487396,619.128845 428.328094,618.277710 425.211334,616.604431 
	C425.661743,618.493713 428.267029,618.494629 426.808990,620.833618 
M227.664246,427.728729 
	C225.871124,426.786560 224.539505,428.084564 223.094742,428.713226 
	C221.770935,429.289276 220.139175,429.715088 220.054764,431.525238 
	C220.003616,432.621857 220.913895,433.251923 221.905563,433.544281 
	C223.509995,434.017334 225.194443,434.339569 226.530899,433.009491 
	C227.826935,431.719604 228.898834,430.240936 227.664246,427.728729 
M723.127136,725.304504 
	C725.677124,723.920471 727.443970,722.054077 727.369141,718.617004 
	C723.523621,718.691345 722.095459,721.327087 720.832703,723.890320 
	C720.251343,725.070435 721.352478,725.564026 723.127136,725.304504 
M643.807434,795.498840 
	C645.487305,792.295227 642.972778,792.284668 641.069885,792.099915 
	C639.591003,791.956360 637.690308,792.207336 637.800415,794.146362 
	C637.935608,796.525818 639.777832,796.847107 641.804993,796.259766 
	C642.277405,796.122925 642.744690,795.968262 643.807434,795.498840 
M596.012207,811.092957 
	C598.642517,812.395508 601.189819,813.315430 603.067871,809.491699 
	C600.196045,807.879700 597.779114,807.118958 596.012207,811.092957 
M655.509094,785.667236 
	C653.973877,787.393921 654.891846,788.345886 656.639709,788.752136 
	C657.825378,789.027649 659.213135,788.582581 659.242188,787.232605 
	C659.287231,785.139221 657.642212,785.154297 655.509094,785.667236 
z"/>
<path fill="#000000" opacity="1.000000" stroke="none" 
	d="
M558.080688,193.250031 
	C555.004395,193.157776 552.486023,192.573730 549.932190,191.576157 
	C558.361328,187.481201 568.888794,188.815796 573.820007,194.944809 
	C568.352844,195.438446 563.577698,192.627029 558.080688,193.250031 
z"/>
<path fill="#000000" opacity="1.000000" stroke="none" 
	d="
M725.776611,272.116150 
	C723.700623,270.257324 721.585205,268.865479 720.707031,266.342590 
	C725.847229,266.187714 728.415222,268.461731 730.218445,274.731354 
	C728.312439,274.761139 727.468384,273.023682 725.776611,272.116150 
z"/>
<path fill="#000000" opacity="1.000000" stroke="none" 
	d="
M618.751465,204.757935 
	C621.159302,205.219238 623.297241,205.510590 624.591003,208.165283 
	C620.636841,209.811157 618.243103,206.903046 615.265137,206.357025 
	C615.702759,204.022614 617.200256,204.675842 618.751465,204.757935 
z"/>
<path fill="#000000" opacity="1.000000" stroke="none" 
	d="
M808.385620,625.823975 
	C809.827637,622.759705 809.841553,619.253540 813.073425,616.160889 
	C813.594788,620.951721 810.720459,623.402771 809.168396,626.332581 
	C809.118103,626.427612 808.843567,626.476807 808.709778,626.433960 
	C808.577026,626.391541 808.490173,626.205688 808.385620,625.823975 
z"/>
<path fill="#000000" opacity="1.000000" stroke="none" 
	d="
M570.036987,305.008087 
	C561.211914,300.452942 551.359680,299.552216 541.872925,297.330566 
	C540.263489,296.953674 538.583496,296.916931 536.835083,294.824890 
	C545.723511,290.473663 554.244324,294.593964 561.661255,296.763672 
	C569.288147,298.994812 577.639832,301.169739 584.267395,306.429596 
	C584.937134,306.961151 584.856812,307.929352 583.896973,309.266418 
	C579.522522,308.485535 575.534790,305.297485 570.365173,305.020355 
	C569.976440,304.966461 570.015259,304.996613 570.036987,305.008087 
z"/>
<path fill="#000000" opacity="1.000000" stroke="none" 
	d="
M487.966705,322.707031 
	C501.978699,319.555481 515.694092,318.663422 530.443420,320.424683 
	C528.200378,322.656586 526.019653,322.501953 524.045837,322.641174 
	C511.554535,323.522278 498.927582,323.035889 486.698425,326.501221 
	C484.870483,327.019196 483.061707,327.082520 482.146912,324.739380 
	C483.595825,323.002289 485.748474,323.340088 487.966705,322.707031 
z"/>
<path fill="#000000" opacity="1.000000" stroke="none" 
	d="
M561.024048,373.758972 
	C565.257141,376.979431 569.844116,379.300781 571.935547,384.418182 
	C565.250244,379.625916 557.629028,376.695648 550.432251,372.898346 
	C554.019714,372.280396 557.441956,371.998352 561.024048,373.758972 
z"/>
<path fill="#000000" opacity="1.000000" stroke="none" 
	d="
M225.984253,499.081360 
	C225.443970,507.503967 226.718796,515.535889 225.590317,523.441528 
	C225.140640,523.426331 224.690979,523.411133 224.241302,523.395935 
	C224.241302,512.165466 224.241302,500.935028 224.241302,489.704590 
	C226.302505,492.501556 225.852829,495.591339 225.984253,499.081360 
z"/>
<path fill="#000000" opacity="1.000000" stroke="none" 
	d="
M309.648132,583.450317 
	C312.840912,584.464783 316.672729,583.789917 317.869751,589.291138 
	C309.909882,586.609192 302.895233,584.245667 295.880585,581.882202 
	C300.592407,580.857544 305.141937,580.547852 309.648132,583.450317 
z"/>
<path fill="#000000" opacity="1.000000" stroke="none" 
	d="
M628.226379,342.637970 
	C623.493958,338.101898 618.994385,333.804871 613.720947,328.768768 
	C618.673401,328.898926 631.130859,340.910095 632.420532,345.462677 
	C630.501587,345.459106 629.729370,343.775665 628.226379,342.637970 
z"/>
<path fill="#000000" opacity="1.000000" stroke="none" 
	d="
M761.858398,559.407349 
	C759.748108,558.847778 758.022522,558.363281 756.296936,557.878784 
	C756.419006,557.397339 756.541138,556.915833 756.663269,556.434387 
	C763.861816,556.290283 770.604553,558.153442 776.843506,562.295044 
	C771.774292,562.431030 767.082947,560.551819 761.858398,559.407349 
z"/>
<path fill="#000000" opacity="1.000000" stroke="none" 
	d="
M521.176819,521.429688 
	C523.158325,523.811035 522.600098,525.279175 519.863037,524.728760 
	C516.855286,524.123718 513.998840,522.766541 510.129669,521.403625 
	C514.472229,517.932678 517.662964,521.539978 521.176819,521.429688 
z"/>
<path fill="#000000" opacity="1.000000" stroke="none" 
	d="
M726.081909,552.743103 
	C730.693176,551.144287 735.296387,550.558655 740.916016,554.603516 
	C734.955139,555.047852 730.531250,554.357605 726.081909,552.743103 
z"/>
<path fill="#000000" opacity="1.000000" stroke="none" 
	d="
M465.664062,449.015442 
	C468.743835,451.086853 468.895111,453.154358 466.402557,458.589020 
	C464.017151,455.518066 464.654816,452.398834 465.664062,449.015442 
z"/>
<path fill="#000000" opacity="1.000000" stroke="none" 
	d="
M425.157745,588.320190 
	C424.440094,587.984802 423.964935,587.797913 423.609100,587.478271 
	C422.347198,586.344727 420.210052,585.713196 420.835968,583.397339 
	C421.072601,582.521790 422.124451,582.154907 422.825043,582.749084 
	C424.478394,584.151306 426.894012,584.983154 427.016113,587.638733 
	C427.026794,587.870667 425.999939,588.150330 425.157745,588.320190 
z"/>
<path fill="#000000" opacity="1.000000" stroke="none" 
	d="
M387.008484,359.982178 
	C386.055206,360.585266 385.093719,361.200348 383.663666,362.115204 
	C384.763153,358.201080 385.013672,354.362091 389.874451,353.435852 
	C390.111877,356.214050 387.653900,357.324738 387.067596,359.689087 
	C386.978760,360.013000 387.000305,359.994171 387.008484,359.982178 
z"/>
<path fill="#000000" opacity="1.000000" stroke="none" 
	d="
M324.018921,593.009399 
	C323.568665,591.994568 322.225861,591.505676 322.303772,589.834106 
	C325.109283,588.580322 327.366821,588.727539 328.731781,591.966187 
	C327.635956,594.084534 326.026489,592.939636 324.335632,592.998901 
	C323.987305,592.983643 324.006958,593.002136 324.018921,593.009399 
z"/>
<path fill="#000000" opacity="1.000000" stroke="none" 
	d="
M493.017334,511.031311 
	C497.240479,510.811005 497.532928,515.121155 500.239380,516.664368 
	C497.293549,515.450256 493.320557,515.648804 493.017334,511.031311 
z"/>
<path fill="#000000" opacity="1.000000" stroke="none" 
	d="
M656.642029,460.705261 
	C658.908386,462.043243 657.739197,466.732880 653.828918,469.404755 
	C654.872925,466.045776 655.666626,463.492096 656.642029,460.705261 
z"/>
<path fill="#000000" opacity="1.000000" stroke="none" 
	d="
M433.156403,352.129150 
	C430.035400,348.543762 434.054810,349.138885 435.206696,347.692108 
	C436.294464,350.631836 436.294464,350.631836 433.156403,352.129150 
z"/>
<path fill="#000000" opacity="1.000000" stroke="none" 
	d="
M544.205322,324.767517 
	C542.810547,323.982697 541.696106,323.354248 539.545227,322.141327 
	C543.786682,322.071228 546.570618,322.723328 549.762207,324.314545 
	C547.763000,325.387817 546.224792,325.803375 544.205322,324.767517 
z"/>
<path fill="#000000" opacity="1.000000" stroke="none" 
	d="
M494.638885,217.275940 
	C492.635437,217.110886 491.020569,216.992645 489.405670,216.874405 
	C493.056671,216.147125 496.700104,215.339294 501.022888,216.992355 
	C498.615570,218.444794 496.796326,217.496521 494.638885,217.275940 
z"/>
<path fill="#000000" opacity="1.000000" stroke="none" 
	d="
M488.534119,507.497131 
	C485.872070,508.649933 485.619598,508.489594 483.792572,504.560059 
	C486.327484,503.935791 487.837341,504.798401 488.534119,507.497131 
z"/>
<path fill="#000000" opacity="1.000000" stroke="none" 
	d="
M700.362671,632.065979 
	C707.438599,629.851135 713.633972,631.477112 720.824219,635.618408 
	C712.966736,634.973145 706.436829,634.508850 700.018250,632.950562 
	C699.857300,632.911499 699.633728,632.921265 699.547302,632.817932 
	C698.815857,631.943420 699.865051,632.319824 700.362671,632.065979 
z"/>
<path fill="#000000" opacity="1.000000" stroke="none" 
	d="
M338.656128,682.210693 
	C337.868835,681.185547 337.944397,680.331177 338.702362,679.837219 
	C341.355347,678.108521 347.597748,680.949219 348.789886,684.642700 
	C345.210205,684.800903 342.111725,683.335266 338.656128,682.210693 
z"/>
<path fill="#000000" opacity="1.000000" stroke="none" 
	d="
M357.902649,685.234131 
	C361.507690,686.148071 364.177979,687.937317 366.519470,690.343384 
	C361.770813,689.496826 357.011597,688.803589 352.509003,686.038330 
	C354.455780,683.761536 356.072205,685.161438 357.902649,685.234131 
z"/>
<path fill="#000000" opacity="1.000000" stroke="none" 
	d="
M731.458191,636.590332 
	C735.762085,638.325867 741.130188,636.544556 744.207581,641.107544 
	C739.358948,641.030579 734.851929,639.789124 730.642456,637.445801 
	C730.621887,637.434326 730.720337,637.139709 730.812805,637.013672 
	C730.906921,636.885559 731.062500,636.802612 731.458191,636.590332 
z"/>
<path fill="#000000" opacity="1.000000" stroke="none" 
	d="
M392.971863,644.652466 
	C389.739838,646.258423 387.227325,645.516541 384.685272,642.353455 
	C388.022797,642.621704 390.819641,642.335327 392.971863,644.652466 
z"/>
<path fill="#000000" opacity="1.000000" stroke="none" 
	d="
M329.481384,679.739136 
	C328.241028,678.989075 326.825500,679.502441 325.856262,677.852905 
	C329.151215,678.195435 332.351654,677.018555 335.179230,680.135986 
	C333.052673,681.140198 331.447571,679.971985 329.481384,679.739136 
z"/>
<path fill="#000000" opacity="1.000000" stroke="none" 
	d="
M688.970215,715.039551 
	C686.684814,715.021790 684.738403,714.851135 683.203552,713.159180 
	C684.373474,709.930237 686.465759,711.836426 688.083374,712.299377 
	C689.557983,712.721252 689.500671,712.921570 688.970215,715.039551 
z"/>
<path fill="#000000" opacity="1.000000" stroke="none" 
	d="
M522.541931,784.840515 
	C522.622192,790.828308 517.864868,790.392883 513.261658,791.968018 
	C514.411987,786.050476 519.333496,786.591309 522.541931,784.840515 
z"/>
</svg>